<svg width="24" height="24" viewBox="0 0 24 24" fill="none" xmlns="http://www.w3.org/2000/svg">
<path d="M8.667 11.2C10.8761 11.2 12.667 9.40915 12.667 7.20001C12.667 4.99087 10.8761 3.20001 8.667 3.20001C6.45786 3.20001 4.667 4.99087 4.667 7.20001C4.667 9.40915 6.45786 11.2 8.667 11.2Z" stroke="#616161" stroke-width="2" stroke-miterlimit="10" stroke-linecap="round"/>
<path d="M18 8.86702C19.4729 8.86702 20.667 7.67296 20.667 6.20002C20.667 4.72708 19.4729 3.53302 18 3.53302C16.5271 3.53302 15.333 4.72708 15.333 6.20002C15.333 7.67296 16.5271 8.86702 18 8.86702Z" stroke="#616161" stroke-width="2" stroke-miterlimit="10" stroke-linecap="round"/>
<path d="M8.667 14.333C7.09623 14.3342 5.57629 14.8898 4.37496 15.9018C3.17363 16.9138 2.368 18.3173 2.1 19.865C2.07954 20.0065 2.08991 20.1508 2.13037 20.288C2.17084 20.4252 2.24046 20.552 2.33446 20.6598C2.42847 20.7675 2.54464 20.8537 2.67504 20.9125C2.80544 20.9712 2.94699 21.001 3.09 21H14.244C14.3873 21.0015 14.5291 20.9719 14.6599 20.9134C14.7907 20.8549 14.9072 20.7687 15.0016 20.6609C15.0959 20.5531 15.1658 20.4261 15.2064 20.2887C15.2471 20.1514 15.2575 20.0068 15.237 19.865C14.9691 18.3167 14.1631 16.9127 12.9611 15.9006C11.7591 14.8885 10.2383 14.3333 8.667 14.333V14.333Z" stroke="#616161" stroke-width="2" stroke-miterlimit="10" stroke-linecap="round"/>
<path d="M14.979 12.984C15.731 12.3385 16.6814 11.9702 17.672 11.9403C18.6626 11.9105 19.6335 12.221 20.423 12.82C21.2542 13.6294 21.7748 14.705 21.894 15.859C21.9142 16.0012 21.9036 16.146 21.8629 16.2837C21.8222 16.4213 21.7523 16.5486 21.658 16.6569C21.5637 16.7651 21.4472 16.8518 21.3164 16.911C21.1856 16.9702 21.0436 17.0006 20.9 17H18" stroke="#616161" stroke-width="2" stroke-miterlimit="10" stroke-linecap="round"/>
</svg>
