<svg width="24" height="24" viewBox="0 0 24 24" fill="none" xmlns="http://www.w3.org/2000/svg">
<path d="M19 3H5C3.89543 3 3 3.89543 3 5V20C3 21.1046 3.89543 22 5 22H19C20.1046 22 21 21.1046 21 20V5C21 3.89543 20.1046 3 19 3Z" stroke="#616161" stroke-width="2" stroke-miterlimit="10" stroke-linecap="round"/>
<path d="M8 11H16" stroke="#616161" stroke-width="2" stroke-miterlimit="10" stroke-linecap="round"/>
<path d="M8 16H16" stroke="#616161" stroke-width="2" stroke-miterlimit="10" stroke-linecap="round"/>
<path d="M16 4V5C16 5.26522 15.8946 5.51957 15.7071 5.70711C15.5196 5.89464 15.2652 6 15 6H9C8.73478 6 8.48043 5.89464 8.29289 5.70711C8.10536 5.51957 8 5.26522 8 5V4" stroke="#616161" stroke-width="2" stroke-miterlimit="10" stroke-linecap="round"/>
</svg>
