<svg width="16" height="16" viewBox="0 0 16 16" fill="none" xmlns="http://www.w3.org/2000/svg">
<path d="M12 7C13.1046 7 14 6.10457 14 5C14 3.89543 13.1046 3 12 3C10.8954 3 10 3.89543 10 5C10 6.10457 10.8954 7 12 7Z" stroke="#2196F3" stroke-width="2" stroke-miterlimit="10"/>
<path d="M4 13C5.10457 13 6 12.1046 6 11C6 9.89543 5.10457 9 4 9C2.89543 9 2 9.89543 2 11C2 12.1046 2.89543 13 4 13Z" stroke="#2196F3" stroke-width="2" stroke-miterlimit="10"/>
<path d="M2 4H11V6H2C1.73478 6 1.48043 5.89464 1.29289 5.70711C1.10536 5.51957 1 5.26522 1 5V5C1 4.73478 1.10536 4.48043 1.29289 4.29289C1.48043 4.10536 1.73478 4 2 4V4Z" fill="#2196F3"/>
<path d="M14 12L5 12V10L14 10C14.2652 10 14.5196 10.1054 14.7071 10.2929C14.8946 10.4804 15 10.7348 15 11V11C15 11.2652 14.8946 11.5196 14.7071 11.7071C14.5196 11.8946 14.2652 12 14 12V12Z" fill="#2196F3"/>
</svg>
