<svg width="24" height="24" viewBox="0 0 24 24" fill="none" xmlns="http://www.w3.org/2000/svg">
<path d="M12 20C10.8534 19.9989 9.72046 19.7513 8.67793 19.274C7.63539 18.7967 6.70765 18.1009 5.95753 17.2338C5.20741 16.3666 4.65245 15.3483 4.33027 14.2479C4.00809 13.1475 3.92618 11.9907 4.09016 10.8559C4.25413 9.72109 4.66014 8.6348 5.28065 7.67062C5.90115 6.70644 6.72167 5.8869 7.68659 5.26755C8.65152 4.64819 9.7383 4.24349 10.8733 4.08087C12.0083 3.91825 13.165 4.00152 14.265 4.32501C14.391 4.36211 14.5085 4.42364 14.6107 4.50613C14.7129 4.58863 14.7979 4.69045 14.8607 4.80578C14.9236 4.92111 14.9631 5.0477 14.9771 5.17831C14.991 5.30892 14.9791 5.44098 14.942 5.56698C14.9049 5.69299 14.8434 5.81047 14.7609 5.91269C14.6784 6.0149 14.5765 6.09985 14.4612 6.16272C14.3459 6.22558 14.2193 6.26514 14.0887 6.27908C13.9581 6.29303 13.826 6.28108 13.7 6.24399C12.4916 5.88696 11.2014 5.91948 10.0124 6.33691C8.82345 6.75435 7.7961 7.53552 7.07606 8.56964C6.35602 9.60376 5.97983 10.8383 6.00086 12.0983C6.02189 13.3582 6.43903 14.5795 7.19319 15.589C7.94734 16.5986 9.00018 17.345 10.2024 17.7225C11.4046 18.1001 12.6952 18.0895 13.8911 17.6923C15.087 17.2952 16.1275 16.5316 16.865 15.5098C17.6025 14.4881 17.9996 13.2601 18 12C18.0001 11.7096 17.9794 11.4195 17.938 11.132C17.9167 11.0009 17.9217 10.867 17.9527 10.7379C17.9837 10.6088 18.0401 10.4871 18.1187 10.3801C18.1972 10.273 18.2962 10.1826 18.41 10.1143C18.5239 10.0459 18.6501 10.0008 18.7815 9.98178C18.9129 9.96272 19.0468 9.97003 19.1754 10.0033C19.3039 10.0365 19.4245 10.095 19.5302 10.1754C19.6359 10.2557 19.7246 10.3563 19.791 10.4713C19.8574 10.5863 19.9002 10.7133 19.917 10.845C19.9729 11.2275 20.0006 11.6135 20 12C19.9976 14.121 19.154 16.1545 17.6542 17.6542C16.1545 19.154 14.121 19.9976 12 20Z" fill="#666666"/>
<path d="M12 14C11.7348 14 11.4805 13.8946 11.293 13.707L9.29301 11.707C9.1975 11.6148 9.12129 11.5044 9.06889 11.3824C9.01648 11.2604 8.98886 11.1292 8.98771 10.9964C8.98655 10.8636 9.01189 10.7319 9.06217 10.609C9.11245 10.4862 9.18666 10.3745 9.28056 10.2806C9.37445 10.1867 9.48615 10.1125 9.60905 10.0622C9.73194 10.0119 9.8636 9.98662 9.99638 9.98777C10.1292 9.98892 10.2604 10.0165 10.3824 10.0689C10.5044 10.1213 10.6147 10.1975 10.7069 10.293L12 11.586L17.293 6.29301C17.3853 6.1975 17.4956 6.12132 17.6176 6.06892C17.7396 6.01651 17.8708 5.98892 18.0036 5.98777C18.1364 5.98662 18.268 6.01189 18.3909 6.06217C18.5138 6.11245 18.6255 6.18672 18.7194 6.28062C18.8133 6.37451 18.8875 6.48615 18.9378 6.60905C18.9881 6.73194 19.0134 6.86363 19.0122 6.99641C19.0111 7.12919 18.9835 7.26042 18.9311 7.38242C18.8787 7.50443 18.8025 7.61476 18.7069 7.70701L12.7069 13.707C12.5195 13.8946 12.2652 14 12 14Z" fill="#666666"/>
</svg>
