<svg width="24" height="24" viewBox="0 0 24 24" fill="none" xmlns="http://www.w3.org/2000/svg">
<path d="M12.5 20C11.0418 19.9984 9.64378 19.4184 8.61267 18.3873C7.58156 17.3562 7.00159 15.9582 7 14.5V8C7 6.93913 7.42142 5.92172 8.17157 5.17157C8.92172 4.42142 9.93913 4 11 4C12.0609 4 13.0783 4.42142 13.8284 5.17157C14.5786 5.92172 15 6.93913 15 8V13.5C15 14.163 14.7366 14.7989 14.2678 15.2678C13.7989 15.7366 13.163 16 12.5 16C11.837 16 11.2011 15.7366 10.7322 15.2678C10.2634 14.7989 10 14.163 10 13.5V9C10 8.73478 10.1054 8.48044 10.2929 8.29291C10.4804 8.10537 10.7348 8 11 8C11.2652 8 11.5196 8.10537 11.7071 8.29291C11.8946 8.48044 12 8.73478 12 9V13.5C12 13.6326 12.0527 13.7598 12.1464 13.8536C12.2402 13.9473 12.3674 14 12.5 14C12.6326 14 12.7598 13.9473 12.8536 13.8536C12.9473 13.7598 13 13.6326 13 13.5V8C13 7.46957 12.7893 6.96089 12.4142 6.58582C12.0391 6.21074 11.5304 6 11 6C10.4696 6 9.96089 6.21074 9.58582 6.58582C9.21074 6.96089 9 7.46957 9 8V14.5C9 15.4283 9.36877 16.3185 10.0251 16.9749C10.6815 17.6312 11.5717 18 12.5 18C13.4283 18 14.3185 17.6312 14.9749 16.9749C15.6312 16.3185 16 15.4283 16 14.5V7C16 6.73478 16.1054 6.48044 16.2929 6.29291C16.4804 6.10537 16.7348 6 17 6C17.2652 6 17.5196 6.10537 17.7071 6.29291C17.8946 6.48044 18 6.73478 18 7V14.5C17.9984 15.9582 17.4184 17.3562 16.3873 18.3873C15.3562 19.4184 13.9582 19.9984 12.5 20Z" fill="#666666"/>
</svg>
