<svg width="32" height="32" viewBox="0 0 32 32" fill="none" xmlns="http://www.w3.org/2000/svg">
<path d="M16 32C24.8366 32 32 24.8366 32 16C32 7.16344 24.8366 0 16 0C7.16344 0 0 7.16344 0 16C0 24.8366 7.16344 32 16 32Z" fill="#4186E0"/>
<path d="M16 9C16.3956 9 16.7823 9.11727 17.1112 9.33704C17.4401 9.5568 17.6964 9.86917 17.8478 10.2346C17.9992 10.6001 18.0387 11.0022 17.9616 11.3902C17.8844 11.7782 17.6939 12.1345 17.4142 12.4142C17.1345 12.6939 16.7782 12.8844 16.3902 12.9615C16.0022 13.0387 15.6001 12.9992 15.2346 12.8478C14.8692 12.6964 14.5568 12.44 14.337 12.1111C14.1173 11.7822 14 11.3956 14 11C14 10.4696 14.2108 9.96089 14.5858 9.58582C14.9609 9.21074 15.4696 9 16 9ZM16 7C15.2089 7 14.4355 7.23461 13.7777 7.67413C13.1199 8.11366 12.6073 8.73833 12.3045 9.46924C12.0018 10.2001 11.9225 11.0044 12.0769 11.7803C12.2312 12.5563 12.6122 13.269 13.1716 13.8284C13.731 14.3878 14.4437 14.7688 15.2197 14.9232C15.9956 15.0775 16.7999 14.9982 17.5308 14.6955C18.2617 14.3927 18.8863 13.8801 19.3259 13.2223C19.7654 12.5645 20 11.7911 20 11C20 9.93913 19.5786 8.92172 18.8284 8.17157C18.0783 7.42142 17.0609 7 16 7Z" fill="white"/>
<path d="M22 22C21.7348 22 21.4804 21.8946 21.2929 21.7071C21.1054 21.5196 21 21.2652 21 21C21 20.2044 20.6839 19.4413 20.1213 18.8787C19.5587 18.3161 18.7956 18 18 18H14C13.2044 18 12.4413 18.3161 11.8787 18.8787C11.3161 19.4413 11 20.2044 11 21C11 21.2652 10.8946 21.5196 10.7071 21.7071C10.5196 21.8946 10.2652 22 10 22C9.73478 22 9.48044 21.8946 9.29291 21.7071C9.10537 21.5196 9 21.2652 9 21C9.00159 19.6744 9.52891 18.4036 10.4662 17.4662C11.4036 16.5289 12.6744 16.0016 14 16H18C19.3256 16.0016 20.5964 16.5289 21.5338 17.4662C22.4711 18.4036 22.9984 19.6744 23 21C23 21.2652 22.8946 21.5196 22.7071 21.7071C22.5196 21.8946 22.2652 22 22 22Z" fill="white"/>
</svg>
