<svg width="16" height="16" viewBox="0 0 16 16" fill="none" xmlns="http://www.w3.org/2000/svg">
<path d="M7.99998 11C7.73478 10.9999 7.4805 10.8945 7.29301 10.7069L4.29301 7.70695C4.1975 7.6147 4.12129 7.50437 4.06889 7.38236C4.01648 7.26036 3.98886 7.12915 3.98771 6.99638C3.98655 6.8636 4.01189 6.73194 4.06217 6.60905C4.11245 6.48615 4.18666 6.37445 4.28056 6.28056C4.37445 6.18666 4.48615 6.11245 4.60905 6.06217C4.73194 6.01189 4.8636 5.98655 4.99638 5.98771C5.12915 5.98886 5.26036 6.01648 5.38236 6.06889C5.50437 6.12129 5.6147 6.1975 5.70695 6.29301L7.99998 8.58598L10.293 6.29301C10.3853 6.1975 10.4956 6.12129 10.6176 6.06889C10.7396 6.01648 10.8708 5.98886 11.0036 5.98771C11.1364 5.98655 11.268 6.01189 11.3909 6.06217C11.5138 6.11245 11.6255 6.18666 11.7194 6.28056C11.8133 6.37445 11.8875 6.48615 11.9378 6.60905C11.9881 6.73194 12.0134 6.8636 12.0122 6.99638C12.0111 7.12915 11.9835 7.26036 11.9311 7.38236C11.8787 7.50437 11.8025 7.6147 11.7069 7.70695L8.70695 10.7069C8.51945 10.8945 8.26517 10.9999 7.99998 11Z" fill="#666666"/>
</svg>
