<svg xmlns:xlink="http://www.w3.org/1999/xlink" xmlns="http://www.w3.org/2000/svg" id="Layer_1" data-name="Layer 1" width="24" height="15.45" viewBox="0 0 24 15.45">
  <path d="M23.7,4.5a1,1,0,0,0-1.4.1L11.5,16.3,5.7,10.5a1,1,0,1,0-1.4,1.4l7.2,7.2L23.7,5.9a1,1,0,0,0,0-1.4Z" transform="translate(0 -4.25)" style="fill:#333"/>
  <path d="M1.7,11.5a1,1,0,0,0-1.4,0,1,1,0,0,0,0,1.4h0l6.5,6.5a1.06,1.06,0,1,0,1.5-1.5Z" transform="translate(0 -4.25)" style="fill:#333"/>
  <path d="M11.5,12.8a.91.91,0,0,0,.7-.3L17.7,7a1,1,0,0,0-.1-1.4,1.05,1.05,0,0,0-1.3,0L10.8,11a1,1,0,0,0,0,1.4,1.61,1.61,0,0,0,.7.4Z" transform="translate(0 -4.25)" style="fill:#333"/>
</svg>