<svg width="24" height="24" viewBox="0 0 24 24" fill="none" xmlns="http://www.w3.org/2000/svg">
<path d="M12 0C15.1826 0 18.2349 1.26427 20.4853 3.51471C22.7357 5.76515 24 8.8174 24 12C24 15.1826 22.7357 18.2349 20.4853 20.4853C18.2349 22.7357 15.1826 24 12 24C8.8174 24 5.76515 22.7357 3.51471 20.4853C1.26427 18.2349 0 15.1826 0 12C0 8.8174 1.26427 5.76515 3.51471 3.51471C5.76515 1.26427 8.8174 0 12 0Z" fill="#28AA37"/>
<path d="M11 16C10.7348 15.9999 10.4805 15.8945 10.293 15.7069L7.29301 12.7069C7.1975 12.6147 7.12129 12.5044 7.06889 12.3824C7.01648 12.2604 6.98886 12.1292 6.98771 11.9964C6.98655 11.8636 7.01189 11.7319 7.06217 11.609C7.11245 11.4862 7.18666 11.3744 7.28056 11.2806C7.37445 11.1867 7.48615 11.1125 7.60905 11.0622C7.73194 11.0119 7.8636 10.9866 7.99638 10.9877C8.12915 10.9889 8.26036 11.0165 8.38236 11.0689C8.50437 11.1213 8.6147 11.1975 8.70695 11.293L11 13.586L16.293 8.29301C16.3853 8.1975 16.4956 8.12129 16.6176 8.06889C16.7396 8.01648 16.8708 7.98886 17.0036 7.98771C17.1364 7.98655 17.268 8.01189 17.3909 8.06217C17.5138 8.11245 17.6255 8.18666 17.7194 8.28056C17.8133 8.37445 17.8875 8.48615 17.9378 8.60905C17.9881 8.73194 18.0134 8.8636 18.0122 8.99638C18.0111 9.12915 17.9835 9.26036 17.9311 9.38236C17.8787 9.50437 17.8025 9.6147 17.7069 9.70695L11.7069 15.7069C11.5195 15.8945 11.2652 15.9999 11 16Z" fill="white"/>
</svg>
