<svg width="24" height="24" viewBox="0 0 24 24" fill="none" xmlns="http://www.w3.org/2000/svg">
<path d="M2 12C2 13.9778 2.58649 15.9112 3.6853 17.5557C4.78412 19.2002 6.34596 20.4819 8.17322 21.2388C10.0005 21.9957 12.0111 22.1937 13.9509 21.8079C15.8907 21.422 17.6725 20.4696 19.071 19.0711C20.4696 17.6726 21.422 15.8907 21.8079 13.9509C22.1937 12.0111 21.9956 10.0004 21.2388 8.17316C20.4819 6.3459 19.2002 4.78412 17.5557 3.6853C15.9112 2.58649 13.9778 2 12 2C9.34784 2 6.80432 3.05356 4.92896 4.92892C3.05359 6.80429 2 9.34784 2 12Z" fill="#2CA01C"/>
<path d="M17.71 8.29001C17.8037 8.38297 17.8781 8.49356 17.9288 8.61542C17.9796 8.73728 18.0057 8.86799 18.0057 9C18.0057 9.13201 17.9796 9.26272 17.9288 9.38458C17.8781 9.50644 17.8037 9.61703 17.71 9.70999L10.71 16.71C10.617 16.8037 10.5064 16.8781 10.3845 16.9289C10.2627 16.9797 10.132 17.0058 10 17.0058C9.86799 17.0058 9.73734 16.9797 9.61548 16.9289C9.49362 16.8781 9.383 16.8037 9.29004 16.71L6.29004 13.71C6.19631 13.617 6.12194 13.5064 6.07117 13.3846C6.0204 13.2627 5.99426 13.132 5.99426 13C5.99426 12.868 6.0204 12.7373 6.07117 12.6154C6.12194 12.4936 6.19631 12.383 6.29004 12.29C6.4774 12.1038 6.73081 11.9992 6.995 11.9992C7.25918 11.9992 7.51259 12.1038 7.69995 12.29L9.98999 14.59L16.28 8.29001C16.373 8.19628 16.4836 8.12187 16.6055 8.07111C16.7273 8.02034 16.858 7.9942 16.99 7.9942C17.122 7.9942 17.2528 8.02034 17.3746 8.07111C17.4965 8.12187 17.607 8.19628 17.7 8.29001H17.71Z" fill="white"/>
</svg>
