<svg width="16" height="16" viewBox="0 0 16 16" fill="none" xmlns="http://www.w3.org/2000/svg">
<path d="M6.99998 12C6.80223 11.9999 6.60891 11.9413 6.4445 11.8314C6.28009 11.7215 6.15194 11.5653 6.07627 11.3826C6.0006 11.1999 5.98082 10.9989 6.01939 10.805C6.05795 10.611 6.1532 10.4329 6.29301 10.293L8.58598 7.99998L6.29301 5.70695C6.1975 5.6147 6.12129 5.50437 6.06889 5.38236C6.01648 5.26036 5.98886 5.12915 5.98771 4.99638C5.98655 4.8636 6.01189 4.73194 6.06217 4.60905C6.11245 4.48615 6.18666 4.37445 6.28056 4.28056C6.37445 4.18666 6.48615 4.11245 6.60905 4.06217C6.73194 4.01189 6.8636 3.98655 6.99638 3.98771C7.12915 3.98886 7.26036 4.01648 7.38236 4.06889C7.50437 4.12129 7.6147 4.1975 7.70695 4.29301L10.7069 7.29301C10.8944 7.48053 10.9998 7.73481 10.9998 7.99998C10.9998 8.26514 10.8944 8.51942 10.7069 8.70695L7.70695 11.7069C7.51945 11.8945 7.26517 11.9999 6.99998 12Z" fill="#666666"/>
</svg>
