<svg width="24" height="24" viewBox="0 0 24 24" fill="none" xmlns="http://www.w3.org/2000/svg">
<path d="M12 23.5C18.3513 23.5 23.5 18.3513 23.5 12C23.5 5.64873 18.3513 0.5 12 0.5C5.64873 0.5 0.5 5.64873 0.5 12C0.5 18.3513 5.64873 23.5 12 23.5Z" stroke="#9E9E9E" stroke-linecap="round"/>
<path d="M17 6H16V5C16 4.73478 15.8946 4.48044 15.7071 4.29291C15.5196 4.10537 15.2652 4 15 4C14.7348 4 14.4804 4.10537 14.2929 4.29291C14.1054 4.48044 14 4.73478 14 5V6H10V5C10 4.73478 9.89463 4.48044 9.70709 4.29291C9.51956 4.10537 9.26522 4 9 4C8.73478 4 8.48044 4.10537 8.29291 4.29291C8.10537 4.48044 8 4.73478 8 5V6H7C6.20435 6 5.44127 6.31605 4.87866 6.87866C4.31605 7.44127 4 8.20435 4 9V16C4 16.7956 4.31605 17.5587 4.87866 18.1213C5.44127 18.6839 6.20435 19 7 19H17C17.7956 19 18.5587 18.6839 19.1213 18.1213C19.6839 17.5587 20 16.7956 20 16V9C20 8.20435 19.6839 7.44127 19.1213 6.87866C18.5587 6.31605 17.7956 6 17 6ZM18 16C18 16.2652 17.8946 16.5196 17.7071 16.7071C17.5196 16.8946 17.2652 17 17 17H7C6.73478 17 6.48044 16.8946 6.29291 16.7071C6.10537 16.5196 6 16.2652 6 16V9C6 8.73478 6.10537 8.48044 6.29291 8.29291C6.48044 8.10537 6.73478 8 7 8H17C17.2652 8 17.5196 8.10537 17.7071 8.29291C17.8946 8.48044 18 8.73478 18 9V16Z" fill="#9E9E9E"/>
<path d="M10 10H8V12H10V10Z" fill="#9E9E9E"/>
<path d="M13 10H11V12H13V10Z" fill="#9E9E9E"/>
<path d="M16 10H14V12H16V10Z" fill="#9E9E9E"/>
<path d="M10 13H8V15H10V13Z" fill="#9E9E9E"/>
<path d="M13 13H11V15H13V13Z" fill="#9E9E9E"/>
<path d="M16 13H14V15H16V13Z" fill="#9E9E9E"/>
</svg>
