<svg width="24" height="24" viewBox="0 0 24 24" fill="none" xmlns="http://www.w3.org/2000/svg">
<path d="M11 22.456C10.7366 22.456 10.4758 22.404 10.2325 22.3029C9.98931 22.2018 9.76842 22.0537 9.58259 21.8671C9.39675 21.6804 9.24964 21.4588 9.14966 21.2151C9.04968 20.9715 8.99882 20.7104 9 20.447V13.357L2.56202 6.70001C2.20054 6.32773 1.99885 5.8289 2 5.31V4C2 3.46957 2.21072 2.96089 2.58579 2.58582C2.96086 2.21074 3.46957 2 4.00001 2H20C20.5304 2 21.0391 2.21074 21.4142 2.58582C21.7893 2.96089 22 3.46957 22 4V5.31C22.0012 5.8289 21.7995 6.32773 21.438 6.70001L15 13.357V19.55C15.0001 19.9348 14.8892 20.3115 14.6806 20.6348C14.472 20.9582 14.1746 21.2145 13.824 21.373L11.824 22.273C11.5655 22.3919 11.2846 22.4543 11 22.456ZM4.00001 4V5.31L10.438 11.962C10.8023 12.3365 11.0042 12.8396 11 13.362V20.45L13 19.55V13.362C12.9954 12.8395 13.1974 12.3363 13.562 11.962L20 5.31V4H4.00001Z" fill="#757575"/>
</svg>
