<svg width="24" height="24" viewBox="0 0 24 24" fill="none" xmlns="http://www.w3.org/2000/svg">
<path d="M12 7C13.1046 7 14 6.10457 14 5C14 3.89543 13.1046 3 12 3C10.8954 3 10 3.89543 10 5C10 6.10457 10.8954 7 12 7Z" stroke="#666666" stroke-width="2" stroke-linecap="round" stroke-linejoin="round"/>
<path d="M5 21C6.10457 21 7 20.1046 7 19C7 17.8954 6.10457 17 5 17C3.89543 17 3 17.8954 3 19C3 20.1046 3.89543 21 5 21Z" stroke="#666666" stroke-width="2" stroke-linecap="round" stroke-linejoin="round"/>
<path d="M19 21C20.1046 21 21 20.1046 21 19C21 17.8954 20.1046 17 19 17C17.8954 17 17 17.8954 17 19C17 20.1046 17.8954 21 19 21Z" stroke="#666666" stroke-width="2" stroke-linecap="round" stroke-linejoin="round"/>
<path d="M6.5 17.5L12 13L17.5 17.5" stroke="#666666" stroke-width="2" stroke-linecap="round" stroke-linejoin="round"/>
<path d="M12 7V13" stroke="#666666" stroke-width="2" stroke-linecap="round" stroke-linejoin="round"/>
</svg>
