<svg xmlns:xlink="http://www.w3.org/1999/xlink" xmlns="http://www.w3.org/2000/svg" id="Layer_1" data-name="Layer 1" width="16" height="4" viewBox="0 0 16 4">
  <path d="M12,10a1.8,1.8,0,0,0-1.36.59,1.92,1.92,0,0,0-.56,1.4,2,2,0,0,0,.56,1.42,1.88,1.88,0,0,0,2.64.08l.08-.08A2,2,0,0,0,13.92,12a1.92,1.92,0,0,0-.56-1.4A1.8,1.8,0,0,0,12,10ZM5.92,10a1.8,1.8,0,0,0-1.36.59A1.93,1.93,0,0,0,4,12a2,2,0,0,0,.56,1.42,1.84,1.84,0,0,0,2.7,0A2,2,0,0,0,7.82,12a1.93,1.93,0,0,0-.56-1.4A1.79,1.79,0,0,0,5.92,10Zm12.16,0a1.79,1.79,0,0,0-1.34.59,1.92,1.92,0,0,0-.56,1.4,2,2,0,0,0,.56,1.42,1.84,1.84,0,0,0,2.7,0,2.06,2.06,0,0,0,0-2.82A1.8,1.8,0,0,0,18.08,10Z" transform="translate(-4 -10)" style="fill:#333"/>
</svg>