<svg width="16" height="16" viewBox="0 0 16 16" fill="none" xmlns="http://www.w3.org/2000/svg">
<path d="M13.745 2.13999C13.6885 2.08364 13.6194 2.04163 13.5434 2.01745C13.4674 1.99327 13.3867 1.98763 13.308 2.001C13.047 2.045 6.91501 3.10101 5.10801 4.91401C4.45588 5.56841 4.04101 6.42184 3.92923 7.33891C3.81745 8.25597 4.01518 9.18411 4.49102 9.97599L2.18401 12.287C1.99319 12.4712 1.88335 12.7236 1.87867 12.9888C1.87398 13.254 1.97482 13.5102 2.15902 13.701C2.34321 13.8918 2.59565 14.0017 2.86083 14.0064C3.126 14.011 3.38219 13.9102 3.57302 13.726L3.59801 13.701L9.30501 7.994L7.30501 11.917C7.54646 11.9651 7.79183 11.9909 8.03801 11.994C8.58294 11.9954 9.12274 11.8887 9.62618 11.6802C10.1296 11.4716 10.5867 11.1653 10.971 10.779C12.781 8.97 13.84 2.83801 13.884 2.57901C13.8977 2.50005 13.8923 2.41894 13.8681 2.34254C13.8439 2.26614 13.8017 2.19667 13.745 2.13999V2.13999Z" fill="#666666"/>
</svg>
