<svg width="24" height="24" viewBox="0 0 24 24" fill="none" xmlns="http://www.w3.org/2000/svg">
<path d="M13 12H18C18.2652 12 18.5196 11.8946 18.7071 11.7071C18.8946 11.5196 19 11.2652 19 11V6C19 5.73478 18.8946 5.48044 18.7071 5.29291C18.5196 5.10537 18.2652 5 18 5H13C12.7348 5 12.4804 5.10537 12.2929 5.29291C12.1054 5.48044 12 5.73478 12 6V8H7V5C7 4.73478 6.89463 4.48044 6.70709 4.29291C6.51956 4.10537 6.26522 4 6 4C5.73478 4 5.48044 4.10537 5.29291 4.29291C5.10537 4.48044 5 4.73478 5 5V17C5 17.2652 5.10537 17.5196 5.29291 17.7071C5.48044 17.8946 5.73478 18 6 18H12V19C12 19.2652 12.1054 19.5196 12.2929 19.7071C12.4804 19.8946 12.7348 20 13 20H18C18.2652 20 18.5196 19.8946 18.7071 19.7071C18.8946 19.5196 19 19.2652 19 19V14C19 13.7348 18.8946 13.4804 18.7071 13.2929C18.5196 13.1054 18.2652 13 18 13H13C12.7348 13 12.4804 13.1054 12.2929 13.2929C12.1054 13.4804 12 13.7348 12 14V16H7V10H12V11C12 11.2652 12.1054 11.5196 12.2929 11.7071C12.4804 11.8946 12.7348 12 13 12ZM14 15H17V18H14V15ZM14 7H17V10H14V7Z" fill="#666666"/>
</svg>
