<svg xmlns="http://www.w3.org/2000/svg" xmlns:xlink="http://www.w3.org/1999/xlink" width="736" height="320" viewBox="0 0 736 320">
  <defs>
    <clipPath id="clip-icon_project">
      <rect width="736" height="320"/>
    </clipPath>
  </defs>
  <g id="icon_project" clip-path="url(#clip-icon_project)">
    <g id="Group_16" data-name="Group 16" transform="translate(-0.289 32)">
      <rect id="Rectangle_16138" data-name="Rectangle 16138" width="16" height="16" transform="translate(0.29)" fill="none"/>
      <g id="Group_19" data-name="Group 19" transform="translate(2.489 2)">
        <g id="Group_18" data-name="Group 18">
          <path id="Path_2" data-name="Path 2" d="M60.5,257h-9a1.5,1.5,0,0,0-1.5,1.5v7a1.5,1.5,0,0,0,1.5,1.5h9a1.5,1.5,0,0,0,1.5-1.5v-7A1.5,1.5,0,0,0,60.5,257ZM57,264.5a2.5,2.5,0,1,1,2.5-2.5A2.5,2.5,0,0,1,57,264.5Z" transform="translate(-50 -255)" fill="#666"/>
          <path id="Path_3" data-name="Path 3" d="M52,255h4v1H52Z" transform="translate(-50 -255)" fill="#666"/>
        </g>
      </g>
    </g>
    <g id="Group_17" data-name="Group 17" transform="translate(16)">
      <rect id="Rectangle_16140" data-name="Rectangle 16140" width="16" height="16" fill="none"/>
      <g id="Group_23" data-name="Group 23" transform="translate(2.207 2.622)">
        <g id="Group_22" data-name="Group 22">
          <path id="Path_6" data-name="Path 6" d="M76.5,266h7a1.5,1.5,0,0,0,1.5-1.5V261H75v3.5A1.5,1.5,0,0,0,76.5,266Z" transform="translate(-74 -255.244)" fill="#666"/>
          <path id="Path_7" data-name="Path 7" d="M83.838,259l-1.667-3.335a.75.75,0,1,0-1.347.66l.005.01L82.162,259H77.838l1.333-2.665a.75.75,0,1,0-1.337-.68l0,.01L76.162,259H74v2H86v-2Z" transform="translate(-74 -255.244)" fill="#666"/>
        </g>
      </g>
    </g>
    <g id="Group_18-2" data-name="Group 18" transform="translate(16.266 32)">
      <rect id="Rectangle_16141" data-name="Rectangle 16141" width="16" height="16" transform="translate(-0.266)" fill="none"/>
      <g id="Group_25" data-name="Group 25" transform="translate(2.006 2)">
        <g id="Group_24" data-name="Group 24">
          <path id="Path_8" data-name="Path 8" d="M88,262a1,1,0,0,0,1,1h6.5a1,1,0,0,0,.948-.683l1-3a1,1,0,0,0-.633-1.265A.99.99,0,0,0,96.5,258H90v-2a1,1,0,0,0-1-1H86v2h2Z" transform="translate(-86 -255)" fill="#666"/>
          <circle id="Ellipse_3" data-name="Ellipse 3" cx="1.5" cy="1.5" r="1.5" transform="translate(0.5 9)" fill="#666"/>
          <circle id="Ellipse_4" data-name="Ellipse 4" cx="1.5" cy="1.5" r="1.5" transform="translate(8.5 9)" fill="#666"/>
        </g>
      </g>
    </g>
    <g id="Group_19-2" data-name="Group 19" transform="translate(15.613 48)">
      <rect id="Rectangle_16142" data-name="Rectangle 16142" width="16" height="16" transform="translate(0.387)" fill="none"/>
      <g id="Group_27" data-name="Group 27" transform="translate(2.946 2.5)">
        <g id="Group_26" data-name="Group 26">
          <circle id="Ellipse_5" data-name="Ellipse 5" cx="2.5" cy="2.5" r="2.5" transform="translate(2.5)" fill="#666"/>
          <path id="Path_9" data-name="Path 9" d="M104,262c-3.375,0-5,2.106-5,3.333V266a1,1,0,0,0,1,1h8a1,1,0,0,0,1-1v-.667C109,264.106,107.375,262,104,262Z" transform="translate(-99 -256)" fill="#666"/>
        </g>
      </g>
    </g>
    <g id="Group_20" data-name="Group 20" transform="translate(-0.433 64)">
      <rect id="Rectangle_16143" data-name="Rectangle 16143" width="16" height="16" transform="translate(0.433)" fill="none"/>
      <g id="Group_29" data-name="Group 29" transform="translate(4.31 2)">
        <g id="Group_28" data-name="Group 28">
          <path id="Path_10" data-name="Path 10" d="M113,267a1,1,0,0,1-1-1V256a1,1,0,0,1,2,0v10A1,1,0,0,1,113,267Z" transform="translate(-112 -255)" fill="#666"/>
          <path id="Path_11" data-name="Path 11" d="M115,263v-7l6,3Z" transform="translate(-112 -255)" fill="#666"/>
        </g>
      </g>
    </g>
    <g id="Group_21" data-name="Group 21" transform="translate(-0.389 48)">
      <rect id="Rectangle_16144" data-name="Rectangle 16144" width="16" height="16" transform="translate(0.389)" fill="none"/>
      <g id="Group_31" data-name="Group 31" transform="translate(3 2)">
        <g id="Group_30" data-name="Group 30">
          <path id="Path_12" data-name="Path 12" d="M123,256.5V267l5-3,5,3V256.5a1.5,1.5,0,0,0-1.5-1.5h-7A1.5,1.5,0,0,0,123,256.5Z" transform="translate(-123 -255)" fill="#666"/>
        </g>
      </g>
    </g>
    <g id="Group_22-2" data-name="Group 22" transform="translate(48)">
      <rect id="Rectangle_16145" data-name="Rectangle 16145" width="16" height="16" fill="none"/>
      <g id="Group_33" data-name="Group 33" transform="translate(2.219 3)">
        <g id="Group_32" data-name="Group 32">
          <path id="Path_13" data-name="Path 13" d="M142,259.5v-2a1.5,1.5,0,0,0-1.5-1.5h-5a1.5,1.5,0,0,0-1.5,1.5v7a1.5,1.5,0,0,0,1.5,1.5h5a1.5,1.5,0,0,0,1.5-1.5v-2l4,2.5v-8Z" transform="translate(-134 -256)" fill="#666"/>
        </g>
      </g>
    </g>
    <g id="Group_23-2" data-name="Group 23" transform="translate(48.047 32)">
      <rect id="Rectangle_16147" data-name="Rectangle 16147" width="16" height="16" transform="translate(-0.047)" fill="none"/>
      <g id="Group_37" data-name="Group 37" transform="translate(1.503 3)">
        <g id="Group_36" data-name="Group 36">
          <path id="Path_16" data-name="Path 16" d="M158.891,260.188a.5.5,0,0,0-.891.312v5a.5.5,0,0,0,.5.5h4a.5.5,0,0,0,.391-.812Z" transform="translate(-158 -256)" fill="#666"/>
          <path id="Path_17" data-name="Path 17" d="M169.665,260.028a.5.5,0,0,0-.556.16l-4,5a.5.5,0,0,0,.391.812h4a.5.5,0,0,0,.5-.5v-5A.5.5,0,0,0,169.665,260.028Z" transform="translate(-157 -256)" fill="#666"/>
          <rect id="Rectangle_16138-2" data-name="Rectangle 16138" width="8" height="5" rx="0.5" transform="translate(2.45)" fill="#666"/>
        </g>
      </g>
    </g>
    <g id="Group_24-2" data-name="Group 24" transform="translate(64.455 32)">
      <rect id="Rectangle_16148" data-name="Rectangle 16148" width="16" height="16" transform="translate(-0.454)" fill="none"/>
      <g id="Group_39" data-name="Group 39" transform="translate(1.924 2.5)">
        <g id="Group_38" data-name="Group 38">
          <path id="Path_18" data-name="Path 18" d="M177,261h-2.916a2.048,2.048,0,0,1-1.981-1.348A2.007,2.007,0,0,1,174,257h2v-2h-1.849a4.1,4.1,0,0,0-4.068,3.173A4,4,0,0,0,174,263h3v3l5-4-5-4Z" transform="translate(-170 -255)" fill="#666"/>
        </g>
      </g>
    </g>
    <g id="Group_25-2" data-name="Group 25" transform="translate(31.683 16)">
      <rect id="Rectangle_16149" data-name="Rectangle 16149" width="16" height="16" transform="translate(0.317)" fill="none"/>
      <g id="Group_41" data-name="Group 41" transform="translate(1.788 2)">
        <g id="Group_40" data-name="Group 40">
          <path id="Path_19" data-name="Path 19" d="M183,255h10a1,1,0,0,1,1,1v2H182v-2A1,1,0,0,1,183,255Z" transform="translate(-182 -255)" fill="#666"/>
          <path id="Path_20" data-name="Path 20" d="M182,260h3v7h-2a1,1,0,0,1-1-1Z" transform="translate(-182 -255)" fill="#666"/>
          <path id="Path_21" data-name="Path 21" d="M187,260h7v6a1,1,0,0,1-1,1h-6Z" transform="translate(-182 -255)" fill="#666"/>
        </g>
      </g>
    </g>
    <g id="Group_26-2" data-name="Group 26" transform="translate(-0.357 16)">
      <rect id="Rectangle_16150" data-name="Rectangle 16150" width="16" height="16" transform="translate(0.357)" fill="none"/>
      <g id="Group_43" data-name="Group 43" transform="translate(2.284 1.5)">
        <g id="Group_42" data-name="Group 42">
          <path id="Path_22" data-name="Path 22" d="M205,255H195a1,1,0,0,0-1,1v5h12v-5A1,1,0,0,0,205,255Zm-3,3h-4v-1h4Z" transform="translate(-194 -255)" fill="#666"/>
          <path id="Path_23" data-name="Path 23" d="M195,267h10a1,1,0,0,0,1-1v-5H194v5A1,1,0,0,0,195,267Zm3-3h4v1h-4Z" transform="translate(-194 -254)" fill="#666"/>
        </g>
      </g>
    </g>
    <g id="Group_27-2" data-name="Group 27" transform="translate(64.017 16)">
      <rect id="Rectangle_16151" data-name="Rectangle 16151" width="16" height="16" transform="translate(-0.017)" fill="none"/>
      <g id="Group_45" data-name="Group 45" transform="translate(2 2.499)">
        <g id="Group_44" data-name="Group 44">
          <path id="Path_24" data-name="Path 24" d="M214.2,255.263a3.279,3.279,0,0,0-2.7,1.437,3.285,3.285,0,0,0-6,1.726c0,3.164,6,7.837,6,7.837s6-4.674,6-7.837A3.262,3.262,0,0,0,214.2,255.263Z" transform="translate(-205.5 -255.261)" fill="#666"/>
        </g>
      </g>
    </g>
    <g id="Group_28-2" data-name="Group 28" transform="translate(63.693 48)">
      <rect id="Rectangle_16152" data-name="Rectangle 16152" width="16" height="16" transform="translate(0.307)" fill="none"/>
      <g id="Group_47" data-name="Group 47" transform="translate(3 1.999)">
        <g id="Group_46" data-name="Group 46">
          <path id="Path_25" data-name="Path 25" d="M223.842,255.136a.5.5,0,0,0-.684,0c-.19.177-4.658,4.4-4.658,7.172A4.813,4.813,0,0,0,223.431,267l.069,0a4.814,4.814,0,0,0,5-4.623l0-.066C228.5,259.538,224.032,255.313,223.842,255.136Z" transform="translate(-218.5 -255.001)" fill="#666"/>
        </g>
      </g>
    </g>
    <g id="Group_29-2" data-name="Group 29" transform="translate(31.837 48)">
      <rect id="Rectangle_16153" data-name="Rectangle 16153" width="16" height="16" transform="translate(0.163)" fill="none"/>
      <g id="Group_49" data-name="Group 49" transform="translate(2.042 1.994)">
        <g id="Group_48" data-name="Group 48">
          <path id="Path_26" data-name="Path 26" d="M241.354,255.146a.5.5,0,0,0-.437-.139c-.261.044-6.393,1.1-8.2,2.913a4.146,4.146,0,0,0-.617,5.062l-2.307,2.311a1,1,0,0,0,1.389,1.439l.025-.025L236.914,261l-2,3.923a4.007,4.007,0,0,0,.733.077,4.122,4.122,0,0,0,2.933-1.215c1.81-1.809,2.869-7.941,2.913-8.2A.5.5,0,0,0,241.354,255.146Z" transform="translate(-229.488 -255)" fill="#666"/>
        </g>
      </g>
    </g>
    <g id="Group_30-2" data-name="Group 30" transform="translate(31.693 64)">
      <rect id="Rectangle_16154" data-name="Rectangle 16154" width="16" height="16" transform="translate(0.307)" fill="none"/>
      <g id="Group_51" data-name="Group 51" transform="translate(2.307 2)">
        <g id="Group_50" data-name="Group 50">
          <path id="Path_27" data-name="Path 27" d="M245.5,267a1,1,0,0,1-1-1,2,2,0,0,0-2-2,1,1,0,0,1,0-2,2,2,0,0,0,2-2,1,1,0,0,1,2,0,2,2,0,0,0,2,2,1,1,0,0,1,0,2,2,2,0,0,0-2,2A1,1,0,0,1,245.5,267Z" transform="translate(-241.5 -255)" fill="#666"/>
          <path id="Path_28" data-name="Path 28" d="M251,260a.625.625,0,0,1-.625-.625,1.252,1.252,0,0,0-1.25-1.25.625.625,0,0,1,0-1.25,1.252,1.252,0,0,0,1.25-1.25.625.625,0,0,1,1.25,0,1.252,1.252,0,0,0,1.25,1.25.625.625,0,0,1,0,1.25,1.252,1.252,0,0,0-1.25,1.25A.625.625,0,0,1,251,260Z" transform="translate(-241.5 -255)" fill="#666"/>
        </g>
      </g>
    </g>
    <g id="Group_31-2" data-name="Group 31" transform="translate(0)">
      <rect id="Rectangle_16155" data-name="Rectangle 16155" width="16" height="16" fill="none"/>
      <g id="Group_53" data-name="Group 53" transform="translate(3.171 1.393)">
        <g id="Group_52" data-name="Group 52">
          <path id="Path_29" data-name="Path 29" d="M61.457,293H58v-2.8a1.264,1.264,0,0,0-1.182-1.4,1.642,1.642,0,0,0-.426,0,.523.523,0,0,0-.483.35L54,294.4V300h6.9a2.074,2.074,0,0,0,2.09-1.61l.644-3.221a1.624,1.624,0,0,0-.483-1.47A2.146,2.146,0,0,0,61.457,293Z" transform="translate(-52 -288.786)" fill="#666"/>
          <path id="Path_30" data-name="Path 30" d="M52,294h2v6H52Z" transform="translate(-52 -288.786)" fill="#666"/>
        </g>
      </g>
    </g>
    <g id="Group_32-2" data-name="Group 32" transform="translate(32)">
      <rect id="Rectangle_16156" data-name="Rectangle 16156" width="16" height="16" fill="none"/>
      <g id="Group_55" data-name="Group 55" transform="translate(2.5 3)">
        <g id="Group_54" data-name="Group 54">
          <path id="Path_31" data-name="Path 31" d="M73.626,289.961A2.991,2.991,0,0,0,69.4,289.8c-.057.053-.113.108-.166.166-.069.071-.138.214-.206.285-.069-.07-.138-.213-.206-.285a2.991,2.991,0,0,0-4.227-.166c-.057.053-.113.108-.166.166a3.261,3.261,0,0,0,0,4.555l4.6,4.484,4.6-4.487a3.4,3.4,0,0,0,0-4.552Z" transform="translate(-63.501 -289)" fill="#666"/>
        </g>
      </g>
    </g>
    <g id="Group_33-2" data-name="Group 33" transform="translate(31.639 32)">
      <rect id="Rectangle_16157" data-name="Rectangle 16157" width="16" height="16" transform="translate(0.362)" fill="none"/>
      <g id="Group_57" data-name="Group 57" transform="translate(1.956 2)">
        <g id="Group_56" data-name="Group 56">
          <path id="Path_32" data-name="Path 32" d="M81.5,288c-3.309,0-6,2.362-6,5.267s2.691,5.266,6,5.266a6.783,6.783,0,0,0,1.036-.079l2.725,1.485A.5.5,0,0,0,86,299.5v-2.789a4.9,4.9,0,0,0,1.5-3.444C87.5,290.362,84.809,288,81.5,288Z" transform="translate(-75.5 -288)" fill="#666"/>
        </g>
      </g>
    </g>
    <g id="Group_34" data-name="Group 34" transform="translate(15.533 16)">
      <rect id="Rectangle_16158" data-name="Rectangle 16158" width="16" height="16" transform="translate(0.467)" fill="none"/>
      <g id="Group_59" data-name="Group 59" transform="translate(1.855 2)">
        <g id="Group_58" data-name="Group 58">
          <path id="Path_33" data-name="Path 33" d="M99.78,288.086a.5.5,0,0,0-.466-.05L94.4,290H90.619a2.577,2.577,0,0,0-2.544,1.88A2.5,2.5,0,0,0,90.5,295h3.9l4.91,1.964a.5.5,0,0,0,.652-.272A.505.505,0,0,0,100,296.5v-8A.5.5,0,0,0,99.78,288.086Z" transform="translate(-88 -288)" fill="#666"/>
          <path id="Path_34" data-name="Path 34" d="M93.615,296h-3.23l1.222,3.057a1.5,1.5,0,1,0,2.786-1.114Z" transform="translate(-88 -288)" fill="#666"/>
        </g>
      </g>
    </g>
    <g id="Group_35" data-name="Group 35" transform="translate(48.387 16)">
      <rect id="Rectangle_16159" data-name="Rectangle 16159" width="16" height="16" transform="translate(-0.387)" fill="none"/>
      <g id="Group_61" data-name="Group 61" transform="translate(1.613 2)">
        <g id="Group_60" data-name="Group 60">
          <path id="Path_35" data-name="Path 35" d="M100,292v7a1,1,0,0,0,1,1h3v-4h4v4h3a1,1,0,0,0,1-1v-7l-6-4Z" transform="translate(-100 -288)" fill="#666"/>
        </g>
      </g>
    </g>
    <g id="Group_36-2" data-name="Group 36" transform="translate(47.693 48)">
      <rect id="Rectangle_16160" data-name="Rectangle 16160" width="16" height="16" transform="translate(0.307)" fill="none"/>
      <g id="Group_63" data-name="Group 63" transform="translate(2.872 3)">
        <g id="Group_62" data-name="Group 62">
          <path id="Path_36" data-name="Path 36" d="M119,295h4v4h-4Z" transform="translate(-113 -289)" fill="#666"/>
          <path id="Path_37" data-name="Path 37" d="M113,295h4v4h-4Z" transform="translate(-113 -289)" fill="#666"/>
          <path id="Path_38" data-name="Path 38" d="M113,289h4v4h-4Z" transform="translate(-113 -289)" fill="#666"/>
          <path id="Path_39" data-name="Path 39" d="M119,289h4v4h-4Z" transform="translate(-113 -289)" fill="#666"/>
        </g>
      </g>
    </g>
    <g id="Group_37-2" data-name="Group 37" transform="translate(15.693 64)">
      <rect id="Rectangle_16161" data-name="Rectangle 16161" width="16" height="16" transform="translate(0.307)" fill="none"/>
      <g id="Group_65" data-name="Group 65" transform="translate(2 2)">
        <g id="Group_64" data-name="Group 64">
          <path id="Path_40" data-name="Path 40" d="M135.5,296a1.648,1.648,0,0,1-1.5-1.5v-2.349a4.1,4.1,0,0,0-3.173-4.068A4,4,0,0,0,126,292v2.5a1.648,1.648,0,0,1-1.5,1.5.5.5,0,0,0,0,1h11a.5.5,0,0,0,0-1Z" transform="translate(-124 -288)" fill="#666"/>
          <path id="Path_41" data-name="Path 41" d="M129.5,300a2,2,0,0,0,2-2h-4A2,2,0,0,0,129.5,300Z" transform="translate(-123.5 -288)" fill="#666"/>
        </g>
      </g>
    </g>
    <g id="Group_38-2" data-name="Group 38" transform="translate(63.784)">
      <rect id="Rectangle_16162" data-name="Rectangle 16162" width="16" height="16" transform="translate(0.216)" fill="none"/>
      <g id="Group_67" data-name="Group 67" transform="translate(2 2.502)">
        <g id="Group_66" data-name="Group 66">
          <path id="Path_42" data-name="Path 42" d="M147.072,292.116l-3.54-.494-1.584-3.084a.531.531,0,0,0-.734-.166.526.526,0,0,0-.166.166l-1.58,3.083-3.54.494a.5.5,0,0,0-.4.327.467.467,0,0,0,.127.493l2.562,2.4-.606,3.389a.473.473,0,0,0,.2.47.517.517,0,0,0,.527.036l3.162-1.6,3.167,1.6a.517.517,0,0,0,.615-.115.466.466,0,0,0,.111-.391l-.606-3.39,2.562-2.4a.467.467,0,0,0,.127-.493.5.5,0,0,0-.4-.327Z" transform="translate(-135.504 -288.29)" fill="#666"/>
        </g>
      </g>
    </g>
  </g>
</svg>