<svg width="24" height="24" viewBox="0 0 24 24" fill="none" xmlns="http://www.w3.org/2000/svg">
<path d="M19.109 13.406C18.4603 12.9734 17.9283 12.3874 17.5604 11.6999C17.1925 11.0124 17 10.2448 17 9.46503V9C17 7.67392 16.4732 6.40216 15.5355 5.46448C14.5978 4.5268 13.3261 4 12 4C10.6739 4 9.40216 4.5268 8.46448 5.46448C7.5268 6.40216 7 7.67392 7 9V9.46503C6.99997 10.2448 6.80748 11.0124 6.43958 11.6999C6.07167 12.3874 5.53973 12.9734 4.89099 13.406C4.61697 13.5886 4.39231 13.836 4.23688 14.1263C4.08144 14.4166 4.00006 14.7407 4 15.07V17C4 17.5304 4.21074 18.0391 4.58582 18.4142C4.96089 18.7893 5.46957 19 6 19H9.18402C9.38767 19.5845 9.76818 20.0912 10.2728 20.4498C10.7774 20.8083 11.381 21.0009 12 21.0009C12.619 21.0009 13.2226 20.8083 13.7272 20.4498C14.2318 20.0912 14.6123 19.5845 14.816 19H18C18.5304 19 19.0391 18.7893 19.4142 18.4142C19.7893 18.0391 20 17.5304 20 17V15.07C19.9999 14.7407 19.9186 14.4166 19.7631 14.1263C19.6077 13.836 19.383 13.5886 19.109 13.406ZM18 17H6V15.07C6.92312 14.4564 7.68012 13.624 8.20355 12.6469C8.72698 11.6698 9.00059 10.5784 9 9.46997V9C9 8.20435 9.31605 7.44127 9.87866 6.87866C10.4413 6.31605 11.2044 6 12 6C12.7956 6 13.5587 6.31605 14.1213 6.87866C14.6839 7.44127 15 8.20435 15 9V9.46503C14.9994 10.5735 15.273 11.6648 15.7964 12.6419C16.3199 13.619 17.0769 14.4514 18 15.065V17Z" fill="#666666"/>
</svg>
