<svg width="16" height="16" viewBox="0 0 16 16" fill="none" xmlns="http://www.w3.org/2000/svg">
<path d="M4.87701 14C4.6118 14 4.35744 13.8946 4.16991 13.7071C3.98237 13.5196 3.87701 13.2652 3.87701 13V3C3.87701 2.73478 3.98237 2.48043 4.16991 2.29289C4.35744 2.10536 4.6118 2 4.87701 2C5.14223 2 5.39659 2.10536 5.58412 2.29289C5.77166 2.48043 5.87701 2.73478 5.87701 3V13C5.87701 13.2652 5.77166 13.5196 5.58412 13.7071C5.39659 13.8946 5.14223 14 4.87701 14Z" fill="#666666"/>
<path d="M6.87701 10V3L12.877 6L6.87701 10Z" fill="#666666"/>
</svg>
