<svg width="24" height="24" viewBox="0 0 24 24" fill="none" xmlns="http://www.w3.org/2000/svg">
<path d="M12 23.5C18.3513 23.5 23.5 18.3513 23.5 12C23.5 5.64873 18.3513 0.5 12 0.5C5.64873 0.5 0.5 5.64873 0.5 12C0.5 18.3513 5.64873 23.5 12 23.5Z" stroke="#616161" stroke-linecap="round" stroke-dasharray="1.83 3.66 1.83 3.66"/>
<path d="M12 11.802C13.3807 11.802 14.5 10.6827 14.5 9.302C14.5 7.92129 13.3807 6.802 12 6.802C10.6193 6.802 9.5 7.92129 9.5 9.302C9.5 10.6827 10.6193 11.802 12 11.802Z" stroke="#616161"/>
<path d="M12 11.902C10.7011 11.9041 9.45599 12.4211 8.53752 13.3395C7.61905 14.258 7.10212 15.5031 7.10001 16.802H16.9C16.8979 15.5031 16.381 14.258 15.4625 13.3395C14.544 12.4211 13.2989 11.9041 12 11.902V11.902Z" stroke="#616161"/>
</svg>
