<svg width="32" height="32" viewBox="0 0 32 32" fill="none" xmlns="http://www.w3.org/2000/svg">
<path d="M16 32C24.8366 32 32 24.8366 32 16C32 7.16344 24.8366 0 16 0C7.16344 0 0 7.16344 0 16C0 24.8366 7.16344 32 16 32Z" fill="#FD9A00"/>
<path d="M21 10H20V9C20 8.73478 19.8946 8.48044 19.7071 8.29291C19.5196 8.10537 19.2652 8 19 8C18.7348 8 18.4804 8.10537 18.2929 8.29291C18.1054 8.48044 18 8.73478 18 9V10H14V9C14 8.73478 13.8946 8.48044 13.7071 8.29291C13.5196 8.10537 13.2652 8 13 8C12.7348 8 12.4804 8.10537 12.2929 8.29291C12.1054 8.48044 12 8.73478 12 9V10H11C10.2044 10 9.44127 10.3161 8.87866 10.8787C8.31605 11.4413 8 12.2044 8 13V20C8 20.7956 8.31605 21.5587 8.87866 22.1213C9.44127 22.6839 10.2044 23 11 23H21C21.7956 23 22.5587 22.6839 23.1213 22.1213C23.6839 21.5587 24 20.7956 24 20V13C24 12.2044 23.6839 11.4413 23.1213 10.8787C22.5587 10.3161 21.7956 10 21 10ZM22 20C22 20.2652 21.8946 20.5196 21.7071 20.7071C21.5196 20.8946 21.2652 21 21 21H11C10.7348 21 10.4804 20.8946 10.2929 20.7071C10.1054 20.5196 10 20.2652 10 20V13C10 12.7348 10.1054 12.4804 10.2929 12.2929C10.4804 12.1054 10.7348 12 11 12H21C21.2652 12 21.5196 12.1054 21.7071 12.2929C21.8946 12.4804 22 12.7348 22 13V20Z" fill="white"/>
<path d="M14 14H12V16H14V14Z" fill="white"/>
<path d="M17 14H15V16H17V14Z" fill="white"/>
<path d="M20 14H18V16H20V14Z" fill="white"/>
<path d="M14 17H12V19H14V17Z" fill="white"/>
<path d="M17 17H15V19H17V17Z" fill="white"/>
<path d="M20 17H18V19H20V17Z" fill="white"/>
</svg>
