<svg width="32" height="32" viewBox="0 0 32 32" fill="none" xmlns="http://www.w3.org/2000/svg">
<path d="M16 32C24.8366 32 32 24.8366 32 16C32 7.16344 24.8366 0 16 0C7.16344 0 0 7.16344 0 16C0 24.8366 7.16344 32 16 32Z" fill="white"/>
<path d="M16 31.5C24.5604 31.5 31.5 24.5604 31.5 16C31.5 7.43959 24.5604 0.5 16 0.5C7.43959 0.5 0.5 7.43959 0.5 16C0.5 24.5604 7.43959 31.5 16 31.5Z" stroke="#E0E0E0" stroke-linecap="round" stroke-linejoin="round" stroke-dasharray="3 3"/>
<path d="M16 10C16.3956 10 16.7823 10.1173 17.1112 10.337C17.4401 10.5568 17.6964 10.8692 17.8478 11.2346C17.9992 11.6001 18.0387 12.0022 17.9616 12.3902C17.8844 12.7782 17.6939 13.1345 17.4142 13.4142C17.1345 13.6939 16.7782 13.8844 16.3902 13.9615C16.0022 14.0387 15.6001 13.9992 15.2346 13.8478C14.8692 13.6964 14.5568 13.44 14.337 13.1111C14.1173 12.7822 14 12.3956 14 12C14 11.4696 14.2108 10.9609 14.5858 10.5858C14.9609 10.2107 15.4696 10 16 10ZM16 8C15.2089 8 14.4355 8.23461 13.7777 8.67413C13.1199 9.11366 12.6073 9.73833 12.3045 10.4692C12.0018 11.2001 11.9225 12.0044 12.0769 12.7803C12.2312 13.5563 12.6122 14.269 13.1716 14.8284C13.731 15.3878 14.4437 15.7688 15.2197 15.9232C15.9956 16.0775 16.7999 15.9982 17.5308 15.6955C18.2617 15.3927 18.8863 14.8801 19.3259 14.2223C19.7654 13.5645 20 12.7911 20 12C20 10.9391 19.5786 9.92172 18.8284 9.17157C18.0783 8.42142 17.0609 8 16 8Z" fill="#757575"/>
<path d="M22 23C21.7348 23 21.4804 22.8946 21.2929 22.7071C21.1054 22.5196 21 22.2652 21 22C21 21.2044 20.6839 20.4413 20.1213 19.8787C19.5587 19.3161 18.7956 19 18 19H14C13.2044 19 12.4413 19.3161 11.8787 19.8787C11.3161 20.4413 11 21.2044 11 22C11 22.2652 10.8946 22.5196 10.7071 22.7071C10.5196 22.8946 10.2652 23 10 23C9.73478 23 9.48044 22.8946 9.29291 22.7071C9.10537 22.5196 9 22.2652 9 22C9.00159 20.6744 9.52891 19.4036 10.4662 18.4662C11.4036 17.5289 12.6744 17.0016 14 17H18C19.3256 17.0016 20.5964 17.5289 21.5338 18.4662C22.4711 19.4036 22.9984 20.6744 23 22C23 22.2652 22.8946 22.5196 22.7071 22.7071C22.5196 22.8946 22.2652 23 22 23Z" fill="#757575"/>
</svg>
