<svg width="24" height="24" viewBox="0 0 24 24" fill="none" xmlns="http://www.w3.org/2000/svg">
<path d="M12 5C12.3956 5 12.7823 5.11727 13.1112 5.33704C13.4401 5.5568 13.6964 5.86917 13.8478 6.23462C13.9992 6.60007 14.0387 7.00224 13.9616 7.3902C13.8844 7.77816 13.6939 8.13448 13.4142 8.41418C13.1345 8.69389 12.7782 8.88438 12.3902 8.96155C12.0022 9.03872 11.6001 8.99915 11.2346 8.84778C10.8692 8.6964 10.5568 8.44004 10.337 8.11115C10.1173 7.78225 10 7.39556 10 7C10 6.46957 10.2108 5.96089 10.5858 5.58582C10.9609 5.21074 11.4696 5 12 5ZM12 3C11.2089 3 10.4355 3.23461 9.77772 3.67413C9.11992 4.11366 8.60726 4.73833 8.30451 5.46924C8.00176 6.20014 7.92251 7.00441 8.07685 7.78033C8.23119 8.55626 8.61217 9.26902 9.17158 9.82843C9.73099 10.3878 10.4437 10.7688 11.2197 10.9232C11.9956 11.0775 12.7999 10.9982 13.5308 10.6955C14.2617 10.3927 14.8863 9.88009 15.3259 9.22229C15.7654 8.56449 16 7.79113 16 7C16 5.93913 15.5786 4.92172 14.8284 4.17157C14.0783 3.42142 13.0609 3 12 3Z" fill="#666666"/>
<path d="M9 20H5C4.73478 20 4.48044 19.8946 4.29291 19.7071C4.10537 19.5196 4 19.2652 4 19V16C4 14.9391 4.42142 13.9217 5.17157 13.1716C5.92172 12.4214 6.93913 12 8 12H9C9.26522 12 9.51956 12.1054 9.70709 12.2929C9.89463 12.4804 10 12.7348 10 13C10 13.2652 9.89463 13.5196 9.70709 13.7071C9.51956 13.8946 9.26522 14 9 14H8C7.46957 14 6.96089 14.2107 6.58582 14.5858C6.21074 14.9609 6 15.4696 6 16V18H9C9.26522 18 9.51956 18.1054 9.70709 18.2929C9.89463 18.4804 10 18.7348 10 19C10 19.2652 9.89463 19.5196 9.70709 19.7071C9.51956 19.8946 9.26522 20 9 20Z" fill="#666666"/>
<path d="M19 20C18.8025 20 18.6094 19.9416 18.445 19.832L16 18.2L13.555 19.83C13.4045 19.9304 13.2297 19.9881 13.049 19.9969C12.8684 20.0058 12.6887 19.9655 12.5291 19.8804C12.3695 19.7952 12.2361 19.6683 12.1429 19.5133C12.0497 19.3583 12.0003 19.1809 12 19V13C12 12.7348 12.1054 12.4804 12.2929 12.2929C12.4804 12.1054 12.7348 12 13 12H19C19.2652 12 19.5196 12.1054 19.7071 12.2929C19.8946 12.4804 20 12.7348 20 13V19C20 19.2652 19.8946 19.5196 19.7071 19.7071C19.5196 19.8946 19.2652 20 19 20ZM16 16C16.1975 16 16.3906 16.0584 16.555 16.168L18 17.131V14H14V17.131L15.445 16.168C15.6094 16.0584 15.8025 16 16 16Z" fill="#666666"/>
</svg>
