<svg width="24" height="24" viewBox="0 0 24 24" fill="none" xmlns="http://www.w3.org/2000/svg">
<path d="M12 14C13.1046 14 14 13.1046 14 12C14 10.8954 13.1046 10 12 10C10.8954 10 10 10.8954 10 12C10 13.1046 10.8954 14 12 14Z" fill="#666666"/>
<path d="M18 13C17.7348 13 17.4804 13.1054 17.2929 13.2929C17.1054 13.4804 17 13.7348 17 14C17 14.7956 16.6839 15.5587 16.1213 16.1213C15.5587 16.6839 14.7956 17 14 17H7V15L4 18L7 21V19H14C15.3261 19 16.5978 18.4732 17.5355 17.5355C18.4732 16.5978 19 15.3261 19 14C19 13.7348 18.8946 13.4804 18.7071 13.2929C18.5196 13.1054 18.2652 13 18 13Z" fill="#666666"/>
<path d="M6 11C6.26522 11 6.51956 10.8946 6.70709 10.7071C6.89463 10.5196 7 10.2652 7 10C7 9.20435 7.31605 8.4413 7.87866 7.87869C8.44127 7.31608 9.20435 7 10 7H17V9L20 6L17 3V5H10C8.67392 5 7.40216 5.5268 6.46448 6.46448C5.5268 7.40216 5 8.67392 5 10C5 10.2652 5.10537 10.5196 5.29291 10.7071C5.48044 10.8946 5.73478 11 6 11Z" fill="#666666"/>
</svg>
