<svg width="24" height="24" viewBox="0 0 24 24" fill="none" xmlns="http://www.w3.org/2000/svg">
<g filter="url(#filter0_dd_1_5229)">
<path d="M11 14C9.61552 14 8.26216 13.5895 7.11101 12.8203C5.95987 12.0511 5.06264 10.9579 4.53283 9.67879C4.00301 8.3997 3.86442 6.99225 4.13451 5.63438C4.40461 4.27652 5.07126 3.02924 6.05022 2.05028C7.02919 1.07131 8.27646 0.404601 9.63433 0.134505C10.9922 -0.135592 12.3997 0.00303721 13.6788 0.532851C14.9578 1.06266 16.0511 1.95989 16.8203 3.11104C17.5895 4.26218 18 5.61554 18 7.00001C18 8.85653 17.2625 10.637 15.9498 11.9498C14.637 13.2625 12.8565 14 11 14ZM11 2.00001C10.0111 2.00001 9.0444 2.29326 8.22216 2.84267C7.39991 3.39207 6.75904 4.17296 6.38061 5.08659C6.00217 6.00022 5.90313 7.00557 6.09606 7.97548C6.28899 8.94538 6.76521 9.83627 7.46447 10.5355C8.16373 11.2348 9.05462 11.711 10.0245 11.9039C10.9944 12.0969 11.9998 11.9978 12.9134 11.6194C13.827 11.241 14.6079 10.6001 15.1573 9.77788C15.7067 8.95563 16 7.98892 16 7.00001C16 5.67393 15.4732 4.40217 14.5355 3.46449C13.5978 2.52681 12.3261 2.00001 11 2.00001Z" fill="#CCCCCC"/>
<path d="M19.7 14.29L17.31 11.89C16.8982 12.4211 16.4211 12.8982 15.89 13.31L18.29 15.7C18.4773 15.8863 18.7308 15.9908 18.995 15.9908C19.2592 15.9908 19.5126 15.8863 19.7 15.7C19.7937 15.607 19.8681 15.4964 19.9189 15.3746C19.9697 15.2527 19.9958 15.122 19.9958 14.99C19.9958 14.858 19.9697 14.7273 19.9189 14.6054C19.8681 14.4836 19.7937 14.373 19.7 14.28V14.29Z" fill="#CCCCCC"/>
</g>
<defs>
<filter id="filter0_dd_1_5229" x="0" y="0" width="23.9958" height="23.9908" filterUnits="userSpaceOnUse" color-interpolation-filters="sRGB">
<feFlood flood-opacity="0" result="BackgroundImageFix"/>
<feColorMatrix in="SourceAlpha" type="matrix" values="0 0 0 0 0 0 0 0 0 0 0 0 0 0 0 0 0 0 127 0" result="hardAlpha"/>
<feOffset dy="4"/>
<feGaussianBlur stdDeviation="2"/>
<feComposite in2="hardAlpha" operator="out"/>
<feColorMatrix type="matrix" values="0 0 0 0 0 0 0 0 0 0 0 0 0 0 0 0 0 0 0.25 0"/>
<feBlend mode="normal" in2="BackgroundImageFix" result="effect1_dropShadow_1_5229"/>
<feColorMatrix in="SourceAlpha" type="matrix" values="0 0 0 0 0 0 0 0 0 0 0 0 0 0 0 0 0 0 127 0" result="hardAlpha"/>
<feOffset dy="4"/>
<feGaussianBlur stdDeviation="2"/>
<feComposite in2="hardAlpha" operator="out"/>
<feColorMatrix type="matrix" values="0 0 0 0 0 0 0 0 0 0 0 0 0 0 0 0 0 0 0.25 0"/>
<feBlend mode="normal" in2="effect1_dropShadow_1_5229" result="effect2_dropShadow_1_5229"/>
<feBlend mode="normal" in="SourceGraphic" in2="effect2_dropShadow_1_5229" result="shape"/>
</filter>
</defs>
</svg>
