<svg xmlns:xlink="http://www.w3.org/1999/xlink" xmlns="http://www.w3.org/2000/svg" width="20" height="20.333" viewBox="0 0 20 20.333"><g transform="translate(0 0.167)"><rect width="20" height="20" fill="none"/><path d="M11.545,13.818a2.273,2.273,0,1,1,2.273-2.273A2.273,2.273,0,0,1,11.545,13.818Z" transform="translate(-1.545 -1.545)" fill="none" stroke="#616161" stroke-miterlimit="10" stroke-width="2"/><path d="M18.817,6.666,17.567,4.5a1.25,1.25,0,0,0-1.707-.457l-1.231.711a1.25,1.25,0,0,1-1.875-1.082V2.25A1.25,1.25,0,0,0,11.5,1H9a1.25,1.25,0,0,0-1.25,1.25V3.672A1.25,1.25,0,0,1,5.879,4.754L4.648,4.043A1.25,1.25,0,0,0,2.94,4.5L1.69,6.666a1.249,1.249,0,0,0,.458,1.707l1.231.711a1.25,1.25,0,0,1,0,2.165l-1.231.711a1.249,1.249,0,0,0-.458,1.708l1.25,2.165a1.25,1.25,0,0,0,1.708.457l1.231-.711a1.25,1.25,0,0,1,1.875,1.082v1.422A1.25,1.25,0,0,0,9,19.333h2.5a1.25,1.25,0,0,0,1.25-1.25V16.662a1.25,1.25,0,0,1,1.875-1.082l1.231.711a1.25,1.25,0,0,0,1.707-.457l1.25-2.165a1.249,1.249,0,0,0-.457-1.708l-1.231-.711a1.25,1.25,0,0,1,0-2.165l1.231-.711A1.249,1.249,0,0,0,18.817,6.666Z" transform="translate(-0.254 -0.167)" fill="none" stroke="#616161" stroke-miterlimit="10" stroke-width="2"/></g></svg>