<svg width="24" height="24" viewBox="0 0 24 24" fill="none" xmlns="http://www.w3.org/2000/svg">
<path d="M12 14.727C11.4607 14.727 10.9334 14.5671 10.485 14.2674C10.0365 13.9678 9.68699 13.5419 9.48059 13.0436C9.27419 12.5453 9.22019 11.997 9.32541 11.468C9.43063 10.939 9.69035 10.4531 10.0717 10.0717C10.4531 9.69035 10.939 9.43063 11.468 9.32541C11.997 9.22019 12.5453 9.27419 13.0436 9.48059C13.5419 9.68699 13.9678 10.0365 14.2674 10.485C14.5671 10.9334 14.727 11.4607 14.727 12C14.727 12.7233 14.4397 13.4169 13.9283 13.9283C13.4169 14.4397 12.7233 14.727 12 14.727Z" stroke="#616161" stroke-width="2" stroke-miterlimit="10"/>
<path d="M22.276 7.8L20.776 5.2C20.5771 4.85549 20.2495 4.60411 19.8652 4.50115C19.4809 4.39819 19.0715 4.4521 18.727 4.651L17.25 5.5C17.0223 5.63144 16.7641 5.70074 16.5013 5.70097C16.2384 5.70119 15.9801 5.63232 15.7522 5.50126C15.5243 5.37021 15.3349 5.18156 15.2028 4.95424C15.0708 4.72691 15.0009 4.46888 15 4.206V2.5C15 2.10218 14.842 1.72064 14.5607 1.43934C14.2794 1.15804 13.8978 1 13.5 1H10.5C10.1022 1 9.72064 1.15804 9.43934 1.43934C9.15803 1.72064 9 2.10218 9 2.5V4.206C9.00017 4.46939 8.93098 4.72817 8.7994 4.95634C8.66782 5.1845 8.47847 5.37399 8.25042 5.50576C8.02236 5.63753 7.76363 5.70692 7.50024 5.70696C7.23685 5.707 6.9781 5.63769 6.75 5.506L5.273 4.652C4.9286 4.45301 4.51927 4.39896 4.13503 4.50172C3.75078 4.60449 3.42309 4.85566 3.224 5.2L1.724 7.8C1.5251 8.14452 1.47119 8.55394 1.57415 8.9382C1.67711 9.32246 1.92849 9.65008 2.273 9.849L3.75 10.7C3.97848 10.8315 4.16826 11.0209 4.30022 11.2492C4.43219 11.4774 4.50167 11.7364 4.50167 12C4.50167 12.2636 4.43219 12.5226 4.30022 12.7508C4.16826 12.9791 3.97848 13.1685 3.75 13.3L2.273 14.153C1.92903 14.3519 1.67804 14.6792 1.57511 15.0629C1.47218 15.4467 1.52573 15.8557 1.724 16.2L3.224 18.8C3.42292 19.1445 3.75054 19.3959 4.1348 19.4988C4.51906 19.6018 4.92848 19.5479 5.273 19.349L6.75 18.5C6.97766 18.3686 7.23586 18.2993 7.49874 18.299C7.76162 18.2988 8.01994 18.3677 8.24782 18.4987C8.4757 18.6298 8.66514 18.8184 8.79715 19.0458C8.92917 19.2731 8.99912 19.5311 9 19.794V21.5C9 21.8978 9.15803 22.2794 9.43934 22.5607C9.72064 22.842 10.1022 23 10.5 23H13.5C13.8978 23 14.2794 22.842 14.5607 22.5607C14.842 22.2794 15 21.8978 15 21.5V19.794C14.9998 19.5306 15.069 19.2718 15.2006 19.0437C15.3322 18.8155 15.5215 18.626 15.7496 18.4942C15.9776 18.3625 16.2364 18.2931 16.4998 18.293C16.7631 18.293 17.0219 18.3623 17.25 18.494L18.727 19.347C19.0715 19.5459 19.4809 19.5998 19.8652 19.4968C20.2495 19.3939 20.5771 19.1425 20.776 18.798L22.276 16.198C22.4749 15.8535 22.5288 15.4441 22.4258 15.0598C22.3229 14.6755 22.0715 14.3479 21.727 14.149L20.25 13.3C20.0215 13.1685 19.8317 12.9791 19.6998 12.7508C19.5678 12.5226 19.4983 12.2636 19.4983 12C19.4983 11.7364 19.5678 11.4774 19.6998 11.2492C19.8317 11.0209 20.0215 10.8315 20.25 10.7L21.727 9.847C22.071 9.64809 22.322 9.32083 22.4249 8.93705C22.5278 8.55327 22.4743 8.14434 22.276 7.8Z" stroke="#616161" stroke-width="2" stroke-miterlimit="10"/>
</svg>
