<svg width="24" height="24" viewBox="0 0 24 24" fill="none" xmlns="http://www.w3.org/2000/svg">
<path d="M18 4H6C4.89543 4 4 4.89543 4 6V18C4 19.1046 4.89543 20 6 20H18C19.1046 20 20 19.1046 20 18V6C20 4.89543 19.1046 4 18 4Z" stroke="#616161" stroke-width="2" stroke-linecap="round" stroke-linejoin="round"/>
<path d="M15 11H9C8.44772 11 8 11.4477 8 12C8 12.5523 8.44772 13 9 13H15C15.5523 13 16 12.5523 16 12C16 11.4477 15.5523 11 15 11Z" fill="#616161"/>
<path d="M11 9V15C11 15.5523 11.4477 16 12 16C12.5523 16 13 15.5523 13 15V9C13 8.44772 12.5523 8 12 8C11.4477 8 11 8.44772 11 9Z" fill="#616161"/>
</svg>
