<svg width="16" height="16" viewBox="0 0 16 16" fill="none" xmlns="http://www.w3.org/2000/svg">
<path d="M4 13L4 4H6V13C6 13.2652 5.89464 13.5196 5.70711 13.7071C5.51957 13.8946 5.26522 14 5 14C4.73478 14 4.48043 13.8946 4.29289 13.7071C4.10536 13.5196 4 13.2652 4 13V13Z" fill="#616161"/>
<path d="M12 3V12H10V3C10 2.73478 10.1054 2.48043 10.2929 2.29289C10.4804 2.10536 10.7348 2 11 2C11.2652 2 11.5196 2.10536 11.7071 2.29289C11.8946 2.48043 12 2.73478 12 3V3Z" fill="#616161"/>
<path d="M4.63701 2.124L1.76001 5.156C1.69274 5.22695 1.64776 5.31607 1.63061 5.41232C1.61347 5.50857 1.62492 5.60774 1.66355 5.69755C1.70217 5.78737 1.76628 5.86388 1.84795 5.91764C1.92961 5.9714 2.02524 6.00003 2.12301 6H7.87701C7.97478 6.00003 8.07041 5.9714 8.15207 5.91764C8.23373 5.86388 8.29784 5.78737 8.33647 5.69755C8.3751 5.60774 8.38655 5.50857 8.3694 5.41232C8.35226 5.31607 8.30727 5.22695 8.24001 5.156L5.36301 2.124C5.31629 2.07468 5.26 2.03539 5.19759 2.00854C5.13518 1.9817 5.06795 1.96785 5.00001 1.96785C4.93207 1.96785 4.86484 1.9817 4.80243 2.00854C4.74002 2.03539 4.68373 2.07468 4.63701 2.124Z" fill="#616261"/>
<path d="M10.637 13.876L7.76001 10.844C7.69274 10.773 7.64776 10.6839 7.63061 10.5877C7.61347 10.4914 7.62492 10.3923 7.66355 10.3024C7.70217 10.2126 7.76628 10.1361 7.84795 10.0824C7.92961 10.0286 8.02524 9.99997 8.12301 10H13.877C13.9748 9.99997 14.0704 10.0286 14.1521 10.0824C14.2337 10.1361 14.2978 10.2126 14.3365 10.3024C14.3751 10.3923 14.3866 10.4914 14.3694 10.5877C14.3523 10.6839 14.3073 10.773 14.24 10.844L11.363 13.876C11.3163 13.9253 11.26 13.9646 11.1976 13.9915C11.1352 14.0183 11.0679 14.0322 11 14.0322C10.9321 14.0322 10.8648 14.0183 10.8024 13.9915C10.74 13.9646 10.6837 13.9253 10.637 13.876Z" fill="#616261"/>
</svg>
