<svg width="16" height="16" viewBox="0 0 16 16" fill="none" xmlns="http://www.w3.org/2000/svg">
<path d="M13.352 6.32799L9.81201 5.834L8.22801 2.74998C8.19082 2.69077 8.14229 2.63951 8.08523 2.5991C8.02817 2.5587 7.96369 2.52993 7.89549 2.51451C7.82729 2.49909 7.75671 2.49728 7.68782 2.5092C7.61892 2.52112 7.55306 2.54656 7.49401 2.584C7.42688 2.62612 7.37013 2.68285 7.32801 2.74998L5.74801 5.83299L2.208 6.32698C2.11788 6.3399 2.033 6.3772 1.9625 6.43483C1.89201 6.49246 1.83859 6.56822 1.80801 6.65398C1.77921 6.73963 1.77588 6.83182 1.79843 6.91933C1.82097 7.00683 1.86841 7.08591 1.93501 7.14699L4.497 9.54698L3.891 12.936C3.87586 13.0253 3.88666 13.117 3.92211 13.2003C3.95757 13.2836 4.01619 13.355 4.09101 13.406C4.16751 13.4588 4.25682 13.49 4.34956 13.4964C4.4423 13.5027 4.53504 13.4839 4.61801 13.442L7.78001 11.842L10.947 13.442C11.048 13.4927 11.1628 13.5089 11.2739 13.4881C11.3849 13.4673 11.4861 13.4107 11.562 13.327C11.6088 13.2744 11.6432 13.212 11.6624 13.1442C11.6816 13.0765 11.6852 13.0053 11.673 12.936L11.067 9.546L13.629 7.14598C13.6956 7.0849 13.743 7.00583 13.7656 6.91832C13.7881 6.83081 13.7848 6.73865 13.756 6.653C13.7254 6.56724 13.672 6.49145 13.6015 6.43382C13.531 6.37619 13.4461 6.33892 13.356 6.326L13.352 6.32799Z" fill="#666666"/>
</svg>
