<svg width="24" height="24" viewBox="0 0 24 24" fill="none" xmlns="http://www.w3.org/2000/svg">
<path d="M10 12C11.1046 12 12 11.1046 12 10C12 8.89543 11.1046 8 10 8C8.89543 8 8 8.89543 8 10C8 11.1046 8.89543 12 10 12Z" fill="#666666"/>
<path d="M13.172 20H12.828C12.4339 20.0011 12.0435 19.924 11.6794 19.7731C11.3153 19.6223 10.9848 19.4006 10.707 19.121L4.87904 13.293C4.59939 13.0151 4.37765 12.6844 4.22676 12.3201C4.07587 11.9559 3.99881 11.5653 4.00001 11.171V7.00001C4.00001 6.20436 4.31607 5.44128 4.87868 4.87867C5.44129 4.31607 6.20436 4.00001 7.00001 4.00001H11.172C11.5661 3.99889 11.9565 4.07599 12.3206 4.22688C12.6847 4.37777 13.0153 4.59947 13.293 4.87904L19.121 10.707C19.4005 10.9851 19.6221 11.3158 19.773 11.68C19.9238 12.0442 20.001 12.4348 20 12.829V13.171C20.001 13.5653 19.9238 13.9558 19.773 14.32C19.6221 14.6842 19.4005 15.015 19.121 15.293L15.293 19.121C15.0153 19.4006 14.6847 19.6223 14.3206 19.7731C13.9565 19.924 13.5661 20.0011 13.172 20ZM7.00001 6.00001C6.7348 6.00001 6.48046 6.10538 6.29292 6.29292C6.10539 6.48046 6.00001 6.7348 6.00001 7.00001V11.171C5.99991 11.3025 6.02573 11.4327 6.076 11.5542C6.12628 11.6757 6.20006 11.7861 6.29304 11.879L12.121 17.707C12.309 17.8937 12.563 17.999 12.828 18H13.172C13.437 17.999 13.691 17.8937 13.879 17.707L17.707 13.879C17.8 13.7861 17.8737 13.6757 17.924 13.5542C17.9743 13.4327 18.0001 13.3025 18 13.171V12.829C18.0001 12.6975 17.9743 12.5673 17.924 12.4458C17.8737 12.3243 17.8 12.2139 17.707 12.121L11.879 6.29304C11.691 6.10632 11.437 6.00105 11.172 6.00001H7.00001Z" fill="#666666"/>
</svg>
