<svg width="24" height="24" viewBox="0 0 24 24" fill="none" xmlns="http://www.w3.org/2000/svg">
<path d="M12 23C9.8244 23 7.69767 22.3549 5.88873 21.1462C4.07979 19.9375 2.6699 18.2195 1.83734 16.2095C1.00478 14.1995 0.786926 11.9878 1.21136 9.854C1.6358 7.72021 2.68342 5.76018 4.2218 4.2218C5.76018 2.68342 7.72021 1.6358 9.854 1.21136C11.9878 0.786926 14.1995 1.00478 16.2095 1.83734C18.2195 2.6699 19.9375 4.07979 21.1462 5.88873C22.3549 7.69767 23 9.8244 23 12C22.9966 14.9163 21.8365 17.7122 19.7744 19.7744C17.7122 21.8365 14.9163 22.9966 12 23Z" fill="white"/>
<path d="M12 2C10.0222 2 8.08877 2.58649 6.44427 3.6853C4.79978 4.78412 3.51811 6.3459 2.76123 8.17316C2.00435 10.0004 1.80629 12.0111 2.19214 13.9509C2.57799 15.8907 3.53043 17.6725 4.92896 19.071C6.32748 20.4696 8.10926 21.422 10.0491 21.8079C11.9889 22.1937 13.9996 21.9956 15.8268 21.2388C17.6541 20.4819 19.2159 19.2002 20.3147 17.5557C21.4135 15.9112 22 13.9778 22 12C21.9971 9.34873 20.9426 6.80686 19.0679 4.93213C17.1931 3.0574 14.6513 2.00291 12 2ZM12 0C14.3734 0 16.6935 0.703762 18.6669 2.02234C20.6403 3.34092 22.1783 5.21506 23.0865 7.40778C23.9948 9.60049 24.2324 12.0133 23.7694 14.3411C23.3064 16.6688 22.1635 18.8071 20.4853 20.4853C18.8071 22.1635 16.6688 23.3064 14.3411 23.7694C12.0133 24.2324 9.60049 23.9948 7.40778 23.0865C5.21506 22.1783 3.34092 20.6403 2.02234 18.6669C0.703762 16.6935 0 14.3734 0 12C0 8.8174 1.26427 5.76515 3.51471 3.51471C5.76515 1.26427 8.8174 0 12 0Z" fill="#E0E0E0"/>
<path d="M11 16C10.7348 15.9999 10.4805 15.8945 10.293 15.7069L7.29301 12.7069C7.1975 12.6147 7.12129 12.5044 7.06889 12.3824C7.01648 12.2604 6.98886 12.1292 6.98771 11.9964C6.98655 11.8636 7.01189 11.7319 7.06217 11.609C7.11245 11.4862 7.18666 11.3744 7.28056 11.2806C7.37445 11.1867 7.48615 11.1125 7.60905 11.0622C7.73194 11.0119 7.8636 10.9866 7.99638 10.9877C8.12915 10.9889 8.26036 11.0165 8.38236 11.0689C8.50437 11.1213 8.6147 11.1975 8.70695 11.293L11 13.586L16.293 8.29301C16.3853 8.1975 16.4956 8.12129 16.6176 8.06889C16.7396 8.01648 16.8708 7.98886 17.0036 7.98771C17.1364 7.98655 17.268 8.01189 17.3909 8.06217C17.5138 8.11245 17.6255 8.18666 17.7194 8.28056C17.8133 8.37445 17.8875 8.48615 17.9378 8.60905C17.9881 8.73194 18.0134 8.8636 18.0122 8.99638C18.0111 9.12915 17.9835 9.26036 17.9311 9.38236C17.8787 9.50437 17.8025 9.6147 17.7069 9.70695L11.7069 15.7069C11.5195 15.8945 11.2652 15.9999 11 16Z" fill="#E0E0E0"/>
</svg>
