<svg width="16" height="16" viewBox="0 0 16 16" fill="none" xmlns="http://www.w3.org/2000/svg">
<path d="M10.058 9.58101C8.69928 9.31101 7.30072 9.31101 5.942 9.58101C5.1126 9.74636 4.36614 10.1941 3.82973 10.8479C3.29331 11.5017 3.0001 12.3213 3 13.167C3 13.3879 3.08775 13.5998 3.24397 13.756C3.40019 13.9122 3.61207 14 3.83299 14H12.167C12.3879 14 12.5998 13.9122 12.756 13.756C12.9122 13.5998 13 13.3879 13 13.167C12.9999 12.3213 12.7067 11.5017 12.1703 10.8479C11.6339 10.1941 10.8874 9.74636 10.058 9.58101Z" stroke="#2196F3" stroke-width="2" stroke-linecap="round" stroke-linejoin="round"/>
<path d="M8 6C9.10457 6 10 5.10457 10 4C10 2.89543 9.10457 2 8 2C6.89543 2 6 2.89543 6 4C6 5.10457 6.89543 6 8 6Z" stroke="#2196F3" stroke-width="2" stroke-linecap="round" stroke-linejoin="round"/>
</svg>
