<svg width="16" height="16" viewBox="0 0 16 16" fill="none" xmlns="http://www.w3.org/2000/svg">
<path d="M7.55899 7.5C8.9397 7.5 10.059 6.38071 10.059 5C10.059 3.61929 8.9397 2.5 7.55899 2.5C6.17828 2.5 5.05899 3.61929 5.05899 5C5.05899 6.38071 6.17828 7.5 7.55899 7.5Z" fill="#666666"/>
<path d="M7.55899 8.5C4.18399 8.5 2.55899 10.606 2.55899 11.833V12.5C2.55899 12.7652 2.66435 13.0196 2.85188 13.2071C3.03942 13.3946 3.29377 13.5 3.55899 13.5H11.559C11.8242 13.5 12.0786 13.3946 12.2661 13.2071C12.4536 13.0196 12.559 12.7652 12.559 12.5V11.833C12.559 10.606 10.934 8.5 7.55899 8.5Z" fill="#666666"/>
</svg>
