<svg width="24" height="24" viewBox="0 0 24 24" fill="none" xmlns="http://www.w3.org/2000/svg">
<path d="M11.09 2L1.58995 20.37C1.53009 20.5202 1.50756 20.6827 1.52428 20.8436C1.541 21.0044 1.59655 21.1588 1.68602 21.2935C1.77549 21.4282 1.8963 21.5392 2.03807 21.6169C2.17985 21.6947 2.33831 21.7369 2.49999 21.74H21.5C21.6617 21.7369 21.8201 21.6947 21.9619 21.6169C22.1037 21.5392 22.2245 21.4282 22.314 21.2935C22.4034 21.1588 22.459 21.0044 22.4757 20.8436C22.4924 20.6827 22.4699 20.5202 22.41 20.37L12.91 2C12.8141 1.84494 12.6801 1.71696 12.5209 1.6282C12.3616 1.53945 12.1823 1.49286 12 1.49286C11.8177 1.49286 11.6384 1.53945 11.4791 1.6282C11.3199 1.71696 11.1859 1.84494 11.09 2Z" fill="#FF7777" stroke="#FF5252" stroke-miterlimit="10"/>
<path d="M12 8.25V14.25" stroke="white" stroke-width="2" stroke-linecap="round"/>
<path d="M12 19.5C12.8284 19.5 13.5 18.8284 13.5 18C13.5 17.1716 12.8284 16.5 12 16.5C11.1716 16.5 10.5 17.1716 10.5 18C10.5 18.8284 11.1716 19.5 12 19.5Z" fill="white"/>
</svg>
